<svg xmlns="http://www.w3.org/2000/svg" viewBox="0 0 100 100" fill="none">
  <defs>
    <linearGradient id="germanFlag" x1="0" y1="0" x2="0" y2="1">
      <stop offset="33%" stop-color="#000000"/>
      <stop offset="33%" stop-color="#DD0000"/>
      <stop offset="66%" stop-color="#DD0000"/>
      <stop offset="66%" stop-color="#FFCE00"/>
    </linearGradient>
  </defs>
  <rect width="100" height="100" rx="24" fill="white"/>
  <path d="M75 40H50V55H63.5C61.5 62.5 56.5 66.5 50 66.5C40.5 66.5 33.5 59 33.5 50C33.5 41 40.5 33.5 50 33.5C54.5 33.5 58.5 35 61.5 38L71 28.5C65.5 23.5 58.5 20 50 20C33.5 20 20 33.5 20 50C20 66.5 33.5 80 50 80C66.5 80 78 68 78 50V40H75Z" fill="url(#germanFlag)"/>
</svg>
